<svg version="1.2" baseProfile="tiny-ps" xmlns="http://www.w3.org/2000/svg" viewBox="0 0 130 130" width="130" height="130">
	<title>moon-svgrepo-com-svg</title>
	<style>
		tspan { white-space:pre }
		.shp0 { fill: #334d5c } 
		.shp1 { fill: #f2c900 } 
		.shp2 { fill: #dbbb00 } 
	</style>
	<path id="Layer" class="shp0" d="M64.89 0C29.05 0 0 29.05 0 64.89C0 100.73 29.05 129.78 64.89 129.78C100.73 129.78 129.78 100.73 129.78 64.89C129.78 29.05 100.73 0 64.89 0Z" />
	<path id="Layer" class="shp1" d="M84.32 21.13C86.97 27.07 88.44 33.64 88.44 40.56C88.44 67 67 88.44 40.56 88.44C33.64 88.44 27.07 86.97 21.13 84.32C28.58 101.08 45.37 112.76 64.89 112.76C91.33 112.76 112.76 91.33 112.76 64.89C112.76 45.37 101.08 28.58 84.32 21.13Z" />
	<g id="Layer">
		<path id="Layer" class="shp2" d="M40.56 88.44C33.64 88.44 27.07 86.97 21.13 84.32C28.58 101.08 45.37 112.76 64.89 112.76C91.33 112.76 112.76 91.33 112.76 64.89C112.76 64.89 67 88.44 40.56 88.44Z" />
		<path id="Layer" class="shp2" d="M61.9 49.35L54.85 49.1L52.64 42.62L50.42 49.1L43.37 49.35L49.05 53.31L46.91 60.24L52.64 55.92L58.36 60.24L56.22 53.31L61.9 49.35Z" />
	</g>
	<path id="Layer" class="shp1" d="M54.88 50.94L56.1 46.34L52.26 49.16L48.1 46.59L49.76 51.1L45.86 54.27L50.83 54.09L52.48 58.77L54 53.99L58.81 53.87L54.88 50.94Z" />
	<path id="Layer" class="shp2" d="M26.55 60.08L21.48 59.9L19.89 55.24L18.3 59.9L13.23 60.08L17.31 62.93L15.77 67.92L19.89 64.81L24.01 67.92L22.47 62.93L26.55 60.08Z" />
	<path id="Layer" class="shp1" d="M21.51 61.23L22.38 57.91L19.62 59.94L16.62 58.09L17.82 61.34L15.02 63.62L18.59 63.49L19.78 66.86L20.87 63.42L24.33 63.33L21.51 61.23Z" />
	<path id="Layer" class="shp2" d="M72.88 17.94L66.8 17.73L64.88 12.13L62.97 17.73L56.89 17.94L61.79 21.37L59.94 27.35L64.88 23.61L69.83 27.35L67.98 21.37L72.88 17.94Z" />
	<path id="Layer" class="shp1" d="M66.83 19.32L67.87 15.34L64.56 17.78L60.96 15.56L62.4 19.46L59.03 22.19L63.32 22.03L64.75 26.08L66.06 21.95L70.22 21.84L66.83 19.32Z" />
	<g id="Layer">
	</g>
	<g id="Layer">
	</g>
	<g id="Layer">
	</g>
	<g id="Layer">
	</g>
	<g id="Layer">
	</g>
	<g id="Layer">
	</g>
	<g id="Layer">
	</g>
	<g id="Layer">
	</g>
	<g id="Layer">
	</g>
	<g id="Layer">
	</g>
	<g id="Layer">
	</g>
	<g id="Layer">
	</g>
	<g id="Layer">
	</g>
	<g id="Layer">
	</g>
	<g id="Layer">
	</g>
</svg>